<svg xmlns="http://www.w3.org/2000/svg" version="1.1" xmlns:xlink="http://www.w3.org/1999/xlink" xmlns:svgjs="http://svgjs.com/svgjs" width="512" height="512" x="0" y="0" viewBox="0 0 512 512" style="enable-background:new 0 0 512 512" xml:space="preserve" class=""><g><path xmlns="http://www.w3.org/2000/svg" d="m358.524 177.271c1.818-3.154 3.513-6.395 5.045-9.74 25.258-2.177 45.145-23.432 45.145-49.245s-19.887-47.067-45.145-49.244c-19.096-41.698-61.08-69.042-107.569-69.042s-88.473 27.344-107.569 69.042c-25.258 2.177-45.145 23.432-45.145 49.244 0 25.813 19.887 47.067 45.145 49.245 1.532 3.345 3.227 6.587 5.044 9.741-13.693 12.435-25.162 27.352-33.549 43.771-11.042 21.615-16.64 44.96-16.64 69.386v68.857c0 84.207 68.507 152.714 152.714 152.714s152.714-68.507 152.714-152.714v-68.857c0-24.426-5.599-47.771-16.64-69.386-8.387-16.42-19.856-31.337-33.55-43.772zm20.19 167.015h-19.429c-25.718 0-50.492-5.187-73.205-14.635 34.574-26.084 60.766-61.693 75.295-102.295 11.25 18.736 17.339 40.362 17.339 63.072zm-122.714-107.715c30.88 0 59.764-12.078 81.282-32.403-12.564 45.152-41.459 84.32-81.137 109.813-38.905-24.924-68.585-63.59-81.444-109.825 21.52 20.333 50.41 32.415 81.299 32.415zm-122.714-118.285c0-10.713 8.716-19.428 19.429-19.428h16.493l3.535-10.001c12.443-35.204 45.902-58.857 83.257-58.857 10.713 0 19.429 8.716 19.429 19.429s-8.716 19.428-19.429 19.428c-5.189 0-10.069-2.021-13.739-5.69l-21.212 21.213c9.336 9.335 21.748 14.477 34.951 14.477 27.255 0 49.429-22.173 49.429-49.428 0-1.48-.077-2.941-.205-4.388 15.416 10.357 27.567 25.521 34.035 43.816l3.535 10.001h16.493c10.713 0 19.429 8.715 19.429 19.428s-8.716 19.429-19.429 19.429h-16.493l-3.535 10.001c-12.444 35.204-45.902 58.856-83.258 58.856-37.355 0-70.813-23.652-83.258-58.856l-3.536-10h-16.492c-10.714-.002-19.429-8.717-19.429-19.43zm122.714 363.714c-67.665 0-122.714-55.049-122.714-122.714v-68.857c0-22.717 6.093-44.349 17.349-63.089 13.394 37.334 36.782 70.824 67.705 96.345 39.54 32.631 89.596 50.602 140.946 50.602h18.511c-7.422 60.614-59.21 107.713-121.797 107.713z" fill="#3a931a" data-original="#000000" class=""></path></g></svg>