<?xml version="1.0"?>
<svg xmlns="http://www.w3.org/2000/svg" xmlns:xlink="http://www.w3.org/1999/xlink" xmlns:svgjs="http://svgjs.com/svgjs" version="1.1" width="512" height="512" x="0" y="0" viewBox="0 0 512 512" style="enable-background:new 0 0 512 512" xml:space="preserve" class=""><g>
<path xmlns="http://www.w3.org/2000/svg" style="" d="M256,512l14.32-6.663c127.238-59.203,208.607-186.81,208.607-327.146V70.124h-40.54  c-66.93,0-131.515-24.657-181.418-69.259L256,0l-0.968,0.866C205.129,45.468,140.544,70.124,73.614,70.124h-40.54V178.19  c0,140.336,81.369,267.943,208.607,327.146L256,512z" fill="#68b113" data-original="#79d60d" class=""/>
<path xmlns="http://www.w3.org/2000/svg" style="" d="M256,512l14.32-6.663c127.238-59.203,208.607-186.81,208.607-327.146V70.124h-40.54  c-66.93,0-131.515-24.657-181.418-69.259L256,0V512z" fill="#3a931a" data-original="#3cc602" class=""/>
<polygon xmlns="http://www.w3.org/2000/svg" style="" points="344.455,221.059 289.044,221.059 289.044,165.648 222.956,165.648 222.956,221.059   167.545,221.059 167.545,287.147 222.956,287.147 222.956,342.558 289.044,342.558 289.044,287.147 344.455,287.147 " fill="#f1f1f2" data-original="#f1f1f2"/>
<polygon xmlns="http://www.w3.org/2000/svg" style="" points="344.455,221.059 289.044,221.059 289.044,165.648 256,165.648 256,342.558 289.044,342.558   289.044,287.147 344.455,287.147 " fill="#e6e6e6" data-original="#e6e6e6"/>
<g xmlns="http://www.w3.org/2000/svg">
</g>
<g xmlns="http://www.w3.org/2000/svg">
</g>
<g xmlns="http://www.w3.org/2000/svg">
</g>
<g xmlns="http://www.w3.org/2000/svg">
</g>
<g xmlns="http://www.w3.org/2000/svg">
</g>
<g xmlns="http://www.w3.org/2000/svg">
</g>
<g xmlns="http://www.w3.org/2000/svg">
</g>
<g xmlns="http://www.w3.org/2000/svg">
</g>
<g xmlns="http://www.w3.org/2000/svg">
</g>
<g xmlns="http://www.w3.org/2000/svg">
</g>
<g xmlns="http://www.w3.org/2000/svg">
</g>
<g xmlns="http://www.w3.org/2000/svg">
</g>
<g xmlns="http://www.w3.org/2000/svg">
</g>
<g xmlns="http://www.w3.org/2000/svg">
</g>
<g xmlns="http://www.w3.org/2000/svg">
</g>
</g></svg>
